<?xml version="1.0" encoding="utf-8"?>
<!-- Generator: Adobe Illustrator 23.0.3, SVG Export Plug-In . SVG Version: 6.00 Build 0)  -->
<svg version="1.1" id="Layer_1" xmlns="http://www.w3.org/2000/svg" xmlns:xlink="http://www.w3.org/1999/xlink" x="0px" y="0px"
	 viewBox="0 0 1024 600" style="enable-background:new 0 0 1024 600;" xml:space="preserve">
<style type="text/css">
	.st0{fill:#474C4F;}
	.st1{font-family:'CocogoosePro-Italic';}
	.st2{font-size:222.9007px;}
	.st3{letter-spacing:-9;}
	.st4{letter-spacing:-7;}
	.st5{fill:#FBAE17;}
</style>
<text transform="matrix(1 0 0 1 391.2358 453.959)" class="st0 st1 st2 st3">paso</text>
<text transform="matrix(1 0 0 1 422.3437 288.563)" class="st0 st1 st2 st4">al</text>
<g>
	<g>
		<g>
			<path class="st0" d="M268.8,332.86c-8.78,45.03-35.9,77.07-71.62,83.21c-35.83,6.16-72.22-15.14-95.53-54.89
				c-10.27-1.32-18.92-9.19-20.77-19.92c-2.27-13.19,6.58-25.72,19.77-27.98c13.19-2.27,25.72,6.58,27.98,19.77
				c1.39,8.08-1.41,15.9-6.81,21.28c18.74,29.43,46.25,45.69,71.83,41.29c25.81-4.44,46.44-29.34,54.12-63.81
				c-6.26-3.43-10.96-9.56-12.27-17.14c-2.27-13.19,6.58-25.72,19.77-27.98c13.19-2.27,25.72,6.58,27.98,19.77
				C285.21,317.77,278.95,328.59,268.8,332.86z"/>
		</g>
	</g>
	<path class="st5" d="M348.68,147.42c-0.67-7.13-6.35-12.64-13.49-13.1l-218.64-14.14c-4.78-0.31-9.59-0.07-14.32,0.71l-68.97,11.34
		c-8.89,1.46-15.5,8.76-16.08,17.75l-2.18,33.76l265.91,25.68l18.93,1.18l4.41,0.3l1.81-0.42l46.76-18.87L348.68,147.42z"/>
	<path class="st5" d="M382.62,409.57l-29.95-206.32l-43.65,17.45L59.33,236.46L16.88,461.1l0.01,0.68c0.1,7.73,3.5,14.95,9.57,20.35
		c3.57,3.18,7.83,5.49,12.44,6.82c3,0.86,6.16,1.31,9.39,1.31l271.45-0.92c4.21-0.01,8.21-0.79,11.85-2.2
		c19.63-2.65,33.17-19.21,41.1-31.02C381.85,442.46,385.15,425.79,382.62,409.57z M319.54,475.42l-271.45,0.92
		c-4.61,0.01-8.93-1.58-12.18-4.47c-2.91-2.59-4.61-5.94-4.82-9.5l40.26-213.05l230.28-13.82l34.54,225.81
		C335.96,469.14,328.62,475.42,319.54,475.42z"/>
</g>
</svg>
