<?xml version="1.0" encoding="utf-8"?>
<!-- Generator: Adobe Illustrator 23.0.3, SVG Export Plug-In . SVG Version: 6.00 Build 0)  -->
<svg version="1.1" id="Layer_1" xmlns="http://www.w3.org/2000/svg" xmlns:xlink="http://www.w3.org/1999/xlink" x="0px" y="0px"
	 viewBox="0 0 1024 600" style="enable-background:new 0 0 1024 600;" xml:space="preserve">
<style type="text/css">
	.st0{fill:#474C4F;}
	.st1{fill:#FBAE17;}
</style>
<g>
	<g>
		<path class="st0" d="M440,311.74h23.57c1.78,0,2.92,0.66,3.42,1.97c0.5,1.32,0.79,2.71,0.87,4.18c0.08,1.47,0.15,2.48,0.23,3.02
			l0.46,9.52c14.01-13.47,29.26-20.2,45.74-20.2c10.52,0,19.85,2.36,27.98,7.08c8.13,4.72,14.45,11.34,18.98,19.85
			c4.53,8.52,6.79,18.34,6.79,29.49c0,5.88-0.7,12.07-2.09,18.58c-2.94,13.54-8.17,25.64-15.67,36.28
			c-7.51,10.64-16.95,19-28.33,25.08c-11.38,6.08-24.11,9.11-38.2,9.11c-6.89,0-13.37-1.35-19.45-4.06
			c-6.08-2.71-10.89-6.23-14.45-10.56l-10.91,51.31c-0.7,3.33-2.71,4.99-6.04,4.99h-32.39c-1.39,0-2.48-0.29-3.25-0.87
			c-0.77-0.58-1.16-1.45-1.16-2.61c0-0.23,0.08-0.74,0.23-1.51l37.38-175.65C434.5,313.41,436.59,311.74,440,311.74z M458.11,391.15
			c0,4.95,1,9.46,3.02,13.52c2.01,4.06,5.01,7.3,9,9.69c3.99,2.4,8.84,3.6,14.57,3.6c6.81,0,13.14-1.53,18.98-4.59
			c5.84-3.06,10.74-7.22,14.69-12.48c3.95-5.26,6.66-11.18,8.13-17.76c0.7-3.17,1.04-6.23,1.04-9.17c0-7.89-2.34-14.24-7.02-19.04
			c-4.68-4.8-11.55-7.2-20.61-7.2c-6.27,0-12.33,1.7-18.17,5.11c-5.84,3.41-10.8,7.84-14.86,13.29c-4.06,5.46-6.72,11.13-7.95,17.01
			C458.38,385.62,458.11,388.29,458.11,391.15z"/>
		<path class="st0" d="M706.46,453.96h-25.42c-1.47,0-2.61-0.58-3.42-1.74s-1.35-2.3-1.63-3.42c-0.27-1.12-0.6-2.92-0.99-5.4
			l-0.7-3.95c-6.58,5.57-13.04,9.77-19.39,12.6c-6.35,2.83-13.12,4.24-20.32,4.24c-10.99,0-21.05-2.48-30.18-7.43
			c-9.13-4.95-16.35-11.9-21.65-20.84c-5.3-8.94-7.95-19.17-7.95-30.71c0-4.72,0.54-9.87,1.63-15.44
			c2.79-13.85,8.22-26.22,16.31-37.09c8.09-10.87,18.23-19.35,30.42-25.42c12.19-6.07,25.6-9.11,40.23-9.11
			c16.25,0,28.4,6.27,36.45,18.81l7.08-12.3c1.08-2.01,1.97-3.35,2.67-4.01c0.7-0.66,1.82-0.99,3.37-0.99h23.68
			c2.79,0,4.18,1.12,4.18,3.37c0,0.31-0.08,0.85-0.23,1.63L712.5,448.97C711.8,452.3,709.79,453.96,706.46,453.96z M684.64,375.6
			c0-5.18-1.12-9.87-3.37-14.05c-2.25-4.18-5.44-7.49-9.58-9.93c-4.14-2.44-8.92-3.66-14.34-3.66c-5.88,0-11.71,1.49-17.47,4.47
			c-5.77,2.98-10.76,7.16-14.98,12.54c-4.22,5.38-7.02,11.44-8.42,18.17c-0.62,3.1-0.93,5.88-0.93,8.36c0,5.26,1.1,9.91,3.31,13.93
			c2.21,4.03,5.34,7.18,9.4,9.46c4.06,2.28,8.77,3.42,14.11,3.42c6.27,0,12.34-1.61,18.23-4.82c5.88-3.21,10.89-7.51,15.03-12.89
			c4.14-5.38,6.87-11.2,8.18-17.47C684.37,380.74,684.64,378.23,684.64,375.6z"/>
		<path class="st0" d="M730.06,429c0-2.01,1.12-3.99,3.37-5.92l18.11-15.56c1.16-0.93,2.24-1.39,3.25-1.39
			c1.16,0,2.44,0.7,3.83,2.09c7.66,8.44,15.87,12.65,24.61,12.65c5.49,0,9.56-0.87,12.19-2.61c2.63-1.74,4.3-4.16,4.99-7.26
			c0.15-1.08,0.23-1.82,0.23-2.21c0-1.7-0.54-3.19-1.63-4.47c-1.08-1.28-2.98-2.51-5.69-3.72c-2.71-1.2-6.58-2.57-11.61-4.12
			c-10.22-3.17-18.11-7.93-23.68-14.28c-5.57-6.35-8.36-14.16-8.36-23.45c0-3.87,0.42-7.66,1.28-11.38
			c1.63-7.58,4.97-14.22,10.04-19.91c5.07-5.69,11.51-10.08,19.33-13.18c7.82-3.09,16.56-4.64,26.24-4.64
			c7.74,0,14.53,1.08,20.37,3.25c5.84,2.17,10.6,4.74,14.28,7.72c3.67,2.98,7.22,6.37,10.62,10.16c1.08,1.24,1.63,2.4,1.63,3.48
			c0,1.55-1.2,3.21-3.6,4.99l-18.81,13.93c-1.47,1.16-2.79,1.74-3.95,1.74c-1.01,0-2.13-0.62-3.37-1.86
			c-2.09-2.09-3.81-3.67-5.17-4.76c-1.35-1.08-3.1-2.03-5.22-2.84c-2.13-0.81-4.7-1.22-7.72-1.22c-4.18,0-7.51,0.66-9.98,1.97
			c-2.48,1.32-3.95,2.94-4.41,4.88c-0.16,0.93-0.23,1.55-0.23,1.86c0,1.39,0.5,2.55,1.51,3.48c1.01,0.93,2.5,1.82,4.47,2.67
			c1.97,0.85,5.09,2.01,9.35,3.48c3.48,1.16,6.77,2.32,9.87,3.48c9.91,3.79,17.03,8.8,21.36,15.03c4.33,6.23,6.5,13.18,6.5,20.84
			c0,3.48-0.43,7.12-1.28,10.91c-2.17,9.91-6.35,18.17-12.54,24.79c-6.19,6.62-13.62,11.48-22.29,14.57
			c-8.67,3.09-17.96,4.64-27.86,4.64c-9.98,0-19.23-1.94-27.75-5.8c-8.51-3.87-15.4-9.79-20.67-17.76
			C730.6,431.83,730.06,430.39,730.06,429z"/>
		<path class="st0" d="M876.08,344.77c8.4-11.03,18.83-19.52,31.29-25.48c12.46-5.96,26-8.94,40.63-8.94c11.61,0,21.94,2.52,31,7.55
			c9.06,5.03,16.1,11.96,21.13,20.78c5.03,8.82,7.55,18.73,7.55,29.72c0,4.64-0.54,9.6-1.63,14.86
			c-3.02,14.86-8.71,27.79-17.07,38.78c-8.36,10.99-18.65,19.45-30.88,25.37c-12.23,5.92-25.54,8.88-39.94,8.88
			c-11.69,0-22.12-2.55-31.29-7.66c-9.17-5.11-16.31-12.15-21.42-21.13c-5.11-8.98-7.66-19.04-7.66-30.18
			c0-4.64,0.46-9.33,1.39-14.05C862.05,368.63,867.68,355.8,876.08,344.77z M899.12,391.62c0,5.11,1.03,9.71,3.08,13.82
			c2.05,4.1,5.03,7.33,8.94,9.69c3.91,2.36,8.53,3.54,13.87,3.54c6.34,0,12.32-1.63,17.94-4.88c5.61-3.25,10.35-7.58,14.22-13
			c3.87-5.42,6.46-11.26,7.78-17.53c0.62-3.09,0.93-5.92,0.93-8.47c0-5.11-1.01-9.69-3.02-13.76c-2.01-4.06-4.95-7.26-8.82-9.58
			c-3.87-2.32-8.48-3.48-13.82-3.48c-6.27,0-12.23,1.61-17.88,4.82c-5.65,3.21-10.45,7.51-14.4,12.89
			c-3.95,5.38-6.58,11.24-7.89,17.59C899.43,386.35,899.12,389.14,899.12,391.62z"/>
	</g>
	<g>
		<path class="st1" d="M748.02,519.14h-5.36c-0.5,0-0.86-0.26-1.07-0.78c-0.22-0.52-0.33-1.06-0.33-1.63l-0.03-2.24
			c-4.33,3.58-8.68,5.36-13.03,5.36c-3.1,0-5.86-0.65-8.27-1.95c-2.42-1.3-4.3-3.14-5.66-5.51c-1.35-2.37-2.03-5.1-2.03-8.17
			c0-1.47,0.18-3.08,0.55-4.81c0.78-3.75,2.32-7.19,4.62-10.32c2.3-3.13,5.11-5.61,8.43-7.43s6.86-2.73,10.61-2.73
			c2.34,0,4.46,0.44,6.37,1.33c1.91,0.89,3.53,2.13,4.88,3.74l3.18-14.98c0.2-0.87,0.7-1.3,1.53-1.3h6.53
			c0.69,0,1.04,0.28,1.04,0.84c0,0.09-0.02,0.24-0.07,0.46l-10.37,48.82C749.35,518.71,748.84,519.14,748.02,519.14z M745.35,496.78
			c0-1.86-0.43-3.54-1.28-5.04c-0.86-1.5-2.04-2.67-3.56-3.53s-3.24-1.28-5.17-1.28c-2.14,0-4.19,0.56-6.14,1.69
			s-3.61,2.64-4.97,4.53c-1.37,1.9-2.28,3.97-2.73,6.22c-0.28,1.37-0.42,2.58-0.42,3.64c0,2.67,0.73,4.79,2.19,6.37
			c1.46,1.58,3.65,2.37,6.55,2.37c2.19,0,4.37-0.55,6.53-1.66c2.17-1.1,4.04-2.6,5.62-4.5c1.58-1.9,2.61-3.97,3.09-6.22
			C745.26,498.47,745.35,497.61,745.35,496.78z"/>
		<path class="st1" d="M788.08,508c0.35,0,0.58,0.14,0.71,0.42l2.63,3.8c0.13,0.26,0.2,0.5,0.2,0.71c0,0.43-0.24,0.82-0.71,1.17
			c-2.75,2.04-5.37,3.51-7.87,4.4s-5.06,1.35-7.7,1.35c-3.14,0-5.97-0.71-8.48-2.13c-2.51-1.42-4.48-3.37-5.9-5.87
			c-1.42-2.49-2.13-5.28-2.13-8.35c0-1.37,0.14-2.72,0.42-4.06c0.8-3.73,2.41-7.16,4.81-10.29s5.34-5.62,8.81-7.46
			s7.11-2.76,10.92-2.76c2.69,0,5.2,0.61,7.54,1.82c2.34,1.21,4.23,3.04,5.66,5.49c1.43,2.45,2.15,5.42,2.15,8.91
			c0,1.26-0.12,2.69-0.36,4.29c-0.17,1.04-0.42,1.79-0.75,2.24c-0.32,0.46-0.7,0.73-1.14,0.81c-0.43,0.09-1.09,0.13-1.98,0.13
			h-27.63c0.04,1.88,0.43,3.56,1.15,5.02c0.73,1.46,1.77,2.61,3.14,3.43c1.36,0.82,2.98,1.24,4.84,1.24c3.92,0,7.53-1.33,10.82-4
			C787.49,508.1,787.77,508,788.08,508z M777.21,487.67c-1.66,0.75-3.17,1.77-4.53,3.07s-2.5,2.76-3.41,4.39h22.59
			c-0.09-1.63-0.53-3.09-1.33-4.39s-1.91-2.32-3.33-3.07c-1.42-0.75-3.06-1.12-4.92-1.12C780.55,486.54,778.86,486.92,777.21,487.67
			z"/>
		<path class="st1" d="M812.33,468.12c0.29-0.24,0.64-0.36,1.06-0.36h6.34c0.35,0,0.61,0.09,0.8,0.28c0.18,0.18,0.28,0.44,0.28,0.76
			c0,0.13-0.01,0.24-0.03,0.33l-10.37,48.66c-0.09,0.41-0.27,0.74-0.54,0.99c-0.27,0.25-0.62,0.37-1.06,0.37h-6.34
			c-0.74,0-1.1-0.33-1.1-0.97c0-0.17,0.01-0.3,0.03-0.39l10.37-48.66C811.84,468.69,812.03,468.35,812.33,468.12z"/>
		<path class="st1" d="M826.46,479.62c0.28-0.22,0.6-0.33,0.94-0.33h6.63c0.3,0,0.54,0.08,0.71,0.24c0.17,0.16,0.26,0.39,0.26,0.67
			c0,0.15-0.01,0.27-0.03,0.36l-7.93,37.31c-0.19,0.84-0.68,1.27-1.46,1.27h-6.63c-0.69,0-1.04-0.28-1.04-0.84
			c0-0.07,0.02-0.21,0.07-0.42l7.93-37.31C826,480.15,826.18,479.84,826.46,479.62z M830.88,465.03h5.43c0.95,0,1.43,0.43,1.43,1.3
			c0,0.3-0.02,0.53-0.06,0.68l-1.14,5.46c-0.13,0.65-0.37,1.11-0.73,1.37s-0.84,0.39-1.45,0.39h-5.43c-1.08,0-1.63-0.4-1.63-1.2
			c0-0.11,0.02-0.29,0.06-0.55l1.14-5.46C828.81,465.69,829.6,465.03,830.88,465.03z"/>
		<path class="st1" d="M852.51,519.14h-3.41c-0.76,0-1.21-0.38-1.37-1.14l-7.25-36.63c-0.04-0.22-0.06-0.38-0.06-0.49
			c0-0.5,0.16-0.89,0.49-1.17c0.33-0.28,0.73-0.42,1.2-0.42h5.72c0.78,0,1.21,0.41,1.3,1.23l4.19,24.93l14.56-25.03
			c0.41-0.76,1.01-1.14,1.79-1.14h7.44c0.56,0,0.84,0.21,0.84,0.62c0,0.3-0.16,0.71-0.49,1.24l-23.14,36.86
			C853.84,518.77,853.23,519.14,852.51,519.14z"/>
		<path class="st1" d="M903.33,508c0.35,0,0.58,0.14,0.71,0.42l2.63,3.8c0.13,0.26,0.2,0.5,0.2,0.71c0,0.43-0.24,0.82-0.71,1.17
			c-2.75,2.04-5.37,3.51-7.87,4.4s-5.06,1.35-7.7,1.35c-3.14,0-5.97-0.71-8.48-2.13c-2.51-1.42-4.48-3.37-5.9-5.87
			c-1.42-2.49-2.13-5.28-2.13-8.35c0-1.37,0.14-2.72,0.42-4.06c0.8-3.73,2.41-7.16,4.81-10.29s5.34-5.62,8.81-7.46
			s7.11-2.76,10.92-2.76c2.69,0,5.2,0.61,7.54,1.82c2.34,1.21,4.23,3.04,5.66,5.49c1.43,2.45,2.15,5.42,2.15,8.91
			c0,1.26-0.12,2.69-0.36,4.29c-0.17,1.04-0.42,1.79-0.75,2.24c-0.32,0.46-0.7,0.73-1.14,0.81c-0.43,0.09-1.09,0.13-1.98,0.13
			h-27.63c0.04,1.88,0.43,3.56,1.15,5.02c0.73,1.46,1.77,2.61,3.14,3.43c1.36,0.82,2.98,1.24,4.84,1.24c3.92,0,7.53-1.33,10.82-4
			C902.75,508.1,903.03,508,903.33,508z M892.46,487.67c-1.66,0.75-3.17,1.77-4.53,3.07s-2.5,2.76-3.41,4.39h22.59
			c-0.09-1.63-0.53-3.09-1.33-4.39s-1.91-2.32-3.33-3.07c-1.42-0.75-3.06-1.12-4.92-1.12C895.8,486.54,894.12,486.92,892.46,487.67z
			"/>
		<path class="st1" d="M926,479.33h4.49c0.54,0,0.94,0.09,1.2,0.26c0.26,0.17,0.39,0.57,0.39,1.2l-0.1,3.41
			c3.01-3.55,6.42-5.33,10.24-5.33c1.52,0,2.94,0.26,4.27,0.78c1.33,0.52,2.46,1.11,3.4,1.77s1.65,1.26,2.15,1.8
			c0.33,0.35,0.49,0.69,0.49,1.04s-0.2,0.71-0.58,1.11l-3.8,4.13c-0.3,0.35-0.62,0.52-0.94,0.52c-0.28,0-0.58-0.13-0.88-0.39
			c-0.95-0.78-1.9-1.4-2.83-1.85s-2.05-0.68-3.35-0.68c-1.34,0-2.71,0.33-4.09,0.98c-1.39,0.65-2.62,1.65-3.69,3.01
			c-1.07,1.35-1.81,3.01-2.23,4.96l-4.65,21.81c-0.15,0.87-0.66,1.3-1.53,1.3h-6.4c-0.69,0-1.04-0.28-1.04-0.84
			c0-0.09,0.02-0.24,0.07-0.46l7.9-37.18C924.67,479.77,925.18,479.33,926,479.33z"/>
		<path class="st1" d="M959.2,531.24h-6.01c-0.78,0-1.17-0.27-1.17-0.81c0-0.3,0.15-0.73,0.46-1.27l8.13-13.46l-6.6-34.29
			c-0.02-0.11-0.03-0.25-0.03-0.42c0-0.54,0.17-0.95,0.52-1.23s0.75-0.42,1.2-0.42h5.56c0.69,0,1.13,0.41,1.3,1.24l4.62,25.06
			l14.27-25.12c0.48-0.78,1.08-1.17,1.82-1.17h6.99c0.74,0,1.11,0.27,1.11,0.81c0,0.35-0.12,0.7-0.36,1.07l-29.94,48.88
			C960.6,530.86,959.98,531.24,959.2,531.24z"/>
	</g>
	<g>
		<path class="st0" d="M576.63,288.56h-25.42c-1.47,0-2.61-0.58-3.42-1.74c-0.81-1.16-1.35-2.3-1.63-3.42
			c-0.27-1.12-0.6-2.92-0.99-5.4l-0.7-3.95c-6.58,5.57-13.04,9.77-19.39,12.6c-6.35,2.82-13.12,4.24-20.32,4.24
			c-10.99,0-21.05-2.48-30.18-7.43c-9.13-4.95-16.35-11.9-21.65-20.84c-5.3-8.94-7.95-19.17-7.95-30.71c0-4.72,0.54-9.87,1.63-15.44
			c2.79-13.85,8.22-26.22,16.31-37.09c8.09-10.87,18.23-19.35,30.42-25.42c12.19-6.07,25.6-9.11,40.23-9.11
			c16.25,0,28.4,6.27,36.45,18.81l7.08-12.31c1.08-2.01,1.97-3.35,2.67-4.01c0.7-0.66,1.82-0.99,3.37-0.99h23.68
			c2.79,0,4.18,1.12,4.18,3.37c0,0.31-0.08,0.85-0.23,1.63l-28.09,132.23C581.97,286.9,579.96,288.56,576.63,288.56z M554.81,210.2
			c0-5.18-1.12-9.87-3.37-14.05c-2.25-4.18-5.44-7.49-9.58-9.93c-4.14-2.44-8.92-3.66-14.34-3.66c-5.88,0-11.71,1.49-17.47,4.47
			c-5.77,2.98-10.76,7.16-14.98,12.54c-4.22,5.38-7.02,11.44-8.42,18.17c-0.62,3.1-0.93,5.88-0.93,8.36c0,5.26,1.1,9.91,3.31,13.93
			c2.21,4.03,5.34,7.18,9.4,9.46c4.06,2.28,8.77,3.42,14.11,3.42c6.27,0,12.34-1.6,18.23-4.82c5.88-3.21,10.89-7.51,15.03-12.89
			c4.14-5.38,6.87-11.2,8.18-17.47C554.54,215.35,554.81,212.83,554.81,210.2z"/>
		<path class="st0" d="M640.85,106.35c1.2-0.89,2.61-1.33,4.24-1.33h31.58c1.32,0,2.38,0.35,3.19,1.04c0.81,0.7,1.22,1.63,1.22,2.79
			c0,0.31-0.08,0.77-0.23,1.39l-36.8,173.1c-0.39,1.63-1.14,2.9-2.26,3.83c-1.12,0.93-2.5,1.39-4.12,1.39h-31.58
			c-1.47,0-2.61-0.31-3.42-0.93c-0.81-0.62-1.22-1.55-1.22-2.79c0-0.23,0.08-0.73,0.23-1.51l36.8-173.1
			C638.85,108.54,639.65,107.24,640.85,106.35z"/>
	</g>
	<g>
		<g>
			<g>
				<path class="st0" d="M268.8,332.86c-8.78,45.03-35.9,77.07-71.62,83.21c-35.83,6.16-72.22-15.14-95.53-54.89
					c-10.27-1.32-18.92-9.19-20.77-19.92c-2.27-13.19,6.58-25.72,19.77-27.98c13.19-2.27,25.72,6.58,27.98,19.77
					c1.39,8.08-1.41,15.9-6.81,21.28c18.74,29.43,46.25,45.69,71.83,41.29c25.81-4.44,46.44-29.34,54.12-63.81
					c-6.26-3.43-10.96-9.56-12.27-17.14c-2.27-13.19,6.58-25.72,19.77-27.98c13.19-2.27,25.72,6.58,27.98,19.77
					C285.21,317.77,278.95,328.59,268.8,332.86z"/>
			</g>
		</g>
		<path class="st1" d="M348.68,147.42c-0.67-7.13-6.35-12.64-13.49-13.1l-218.64-14.14c-4.78-0.31-9.59-0.07-14.32,0.71
			l-68.97,11.34c-8.89,1.46-15.5,8.76-16.08,17.75l-2.18,33.76l265.91,25.68l18.93,1.18l4.41,0.3l1.81-0.42l46.76-18.87
			L348.68,147.42z"/>
		<path class="st1" d="M382.62,409.57l-29.95-206.32l-43.65,17.45L59.33,236.46L16.88,461.1l0.01,0.68
			c0.1,7.73,3.5,14.95,9.57,20.35c3.57,3.18,7.83,5.49,12.44,6.82c3,0.86,6.16,1.31,9.39,1.31l271.45-0.92
			c4.21-0.01,8.21-0.79,11.85-2.2c19.63-2.65,33.17-19.21,41.1-31.02C381.85,442.46,385.15,425.79,382.62,409.57z M319.54,475.42
			l-271.45,0.92c-4.61,0.01-8.93-1.58-12.18-4.47c-2.91-2.59-4.61-5.94-4.82-9.5l40.26-213.05l230.28-13.82l34.54,225.81
			C335.96,469.14,328.62,475.42,319.54,475.42z"/>
	</g>
</g>
</svg>
