<?xml version="1.0" encoding="utf-8"?>
<!-- Generator: Adobe Illustrator 22.1.0, SVG Export Plug-In . SVG Version: 6.00 Build 0)  -->
<svg version="1.1" id="Layer_1" xmlns="http://www.w3.org/2000/svg" xmlns:xlink="http://www.w3.org/1999/xlink" x="0px" y="0px"
	 viewBox="0 0 294 294" style="enable-background:new 0 0 294 294;" xml:space="preserve">
<style type="text/css">
	.st0{fill:#4C5966;}
	.st1{clip-path:url(#SVGID_2_);}
	.st2{fill-rule:evenodd;clip-rule:evenodd;fill:#F48120;}
	.st3{fill-rule:evenodd;clip-rule:evenodd;fill:#F4821F;}
	.st4{fill-rule:evenodd;clip-rule:evenodd;fill:#F5851F;}
	.st5{fill-rule:evenodd;clip-rule:evenodd;fill:#F5871F;}
	.st6{fill-rule:evenodd;clip-rule:evenodd;fill:#F5881F;}
	.st7{fill-rule:evenodd;clip-rule:evenodd;fill:#F58A1F;}
	.st8{fill-rule:evenodd;clip-rule:evenodd;fill:#F68C1E;}
	.st9{fill-rule:evenodd;clip-rule:evenodd;fill:#F68E1E;}
	.st10{fill-rule:evenodd;clip-rule:evenodd;fill:#F68F1E;}
	.st11{fill-rule:evenodd;clip-rule:evenodd;fill:#F6911E;}
	.st12{fill-rule:evenodd;clip-rule:evenodd;fill:#F6921E;}
	.st13{fill-rule:evenodd;clip-rule:evenodd;fill:#F7941D;}
	.st14{fill-rule:evenodd;clip-rule:evenodd;fill:#F7971D;}
	.st15{fill-rule:evenodd;clip-rule:evenodd;fill:#F7981D;}
	.st16{fill-rule:evenodd;clip-rule:evenodd;fill:#F89A1C;}
	.st17{fill-rule:evenodd;clip-rule:evenodd;fill:#F89C1C;}
	.st18{fill-rule:evenodd;clip-rule:evenodd;fill:#F89E1C;}
	.st19{fill-rule:evenodd;clip-rule:evenodd;fill:#F89F1B;}
	.st20{fill-rule:evenodd;clip-rule:evenodd;fill:#F9A11B;}
	.st21{fill-rule:evenodd;clip-rule:evenodd;fill:#F9A31A;}
	.st22{fill-rule:evenodd;clip-rule:evenodd;fill:#F9A51A;}
	.st23{fill-rule:evenodd;clip-rule:evenodd;fill:#F9A719;}
	.st24{fill-rule:evenodd;clip-rule:evenodd;fill:#FAA819;}
	.st25{fill-rule:evenodd;clip-rule:evenodd;fill:#FAAB18;}
	.st26{fill-rule:evenodd;clip-rule:evenodd;fill:#FAAC18;}
	.st27{fill-rule:evenodd;clip-rule:evenodd;fill:#FBAE17;}
	.st28{fill-rule:evenodd;clip-rule:evenodd;fill:#FBB017;}
</style>
<g>
	<g>
		<path class="st0" d="M53.4,90.8h21.8v61.4H53.4v-6.8c-4.6,5.8-10.9,8.7-18.8,8.7c-4.5,0-8.6-0.8-12.3-2.5c-3.8-1.6-7-3.9-9.8-6.9
			c-2.8-3-5-6.4-6.5-10.4c-1.6-4-2.3-8.3-2.3-13.1c0-4.4,0.8-8.6,2.3-12.5c1.5-4,3.6-7.4,6.3-10.4c2.7-3,5.9-5.3,9.7-7
			c3.8-1.7,7.9-2.6,12.5-2.6c7.7,0,14,2.7,19,8V90.8z M26.1,121.3c0,2,0.4,3.9,1.1,5.6c0.7,1.7,1.7,3.2,2.9,4.5
			c1.2,1.3,2.7,2.3,4.4,3c1.7,0.7,3.6,1.1,5.6,1.1c1.9,0,3.7-0.4,5.4-1.1c1.7-0.7,3.2-1.7,4.4-3c1.2-1.3,2.2-2.8,3-4.4
			c0.8-1.7,1.1-3.5,1.1-5.4c0-1.9-0.4-3.7-1.1-5.4c-0.8-1.7-1.8-3.2-3-4.5c-1.2-1.3-2.7-2.3-4.4-3c-1.7-0.7-3.5-1.1-5.4-1.1
			c-2,0-3.9,0.4-5.6,1.1c-1.7,0.7-3.2,1.7-4.4,3c-1.2,1.3-2.2,2.7-2.9,4.4C26.5,117.7,26.1,119.4,26.1,121.3z"/>
		<path class="st0" d="M108,52.9v99.4H86.3V52.9H108z"/>
	</g>
	<g>
		<path class="st0" d="M24,261.9H2.3v-92.1H24v6.8c4.6-5.8,10.9-8.7,18.9-8.7c4.4,0,8.5,0.9,12.3,2.6c3.8,1.7,7.1,4.1,9.9,7
			c2.8,3,5,6.4,6.5,10.4c1.6,4,2.3,8.3,2.3,12.8s-0.8,8.8-2.3,12.7c-1.6,3.9-3.7,7.3-6.5,10.3c-2.8,3-6,5.3-9.8,6.9
			c-3.8,1.7-7.8,2.5-12.2,2.5c-7.7,0-14.1-2.6-19.2-7.9V261.9z M51.3,200.8c0-1.9-0.3-3.7-1-5.4c-0.7-1.7-1.7-3.2-2.9-4.5
			c-1.3-1.3-2.8-2.3-4.5-3.1c-1.7-0.8-3.6-1.1-5.6-1.1c-1.9,0-3.7,0.4-5.4,1.1c-1.7,0.7-3.1,1.7-4.4,3c-1.2,1.3-2.2,2.8-3,4.5
			c-0.8,1.7-1.1,3.5-1.1,5.4c0,1.9,0.4,3.7,1.1,5.4c0.7,1.7,1.7,3.1,3,4.4c1.3,1.2,2.8,2.2,4.5,3c1.7,0.8,3.5,1.1,5.4,1.1
			c1.9,0,3.7-0.4,5.4-1.1c1.7-0.7,3.1-1.7,4.4-3c1.2-1.3,2.2-2.8,3-4.4C50.9,204.4,51.3,202.6,51.3,200.8z"/>
		<path class="st0" d="M130.1,169.9h21.8v61.4h-21.8v-6.8c-4.6,5.8-10.9,8.7-18.8,8.7c-4.5,0-8.6-0.8-12.3-2.5
			c-3.8-1.6-7-3.9-9.8-6.9c-2.8-3-5-6.4-6.5-10.4c-1.6-4-2.3-8.3-2.3-13.1c0-4.4,0.8-8.6,2.3-12.5c1.5-4,3.6-7.4,6.3-10.4
			c2.7-3,5.9-5.3,9.7-7c3.8-1.7,7.9-2.6,12.5-2.6c7.7,0,14,2.7,19,8V169.9z M102.8,200.4c0,2,0.4,3.9,1.1,5.6
			c0.7,1.7,1.7,3.2,2.9,4.5c1.2,1.3,2.7,2.3,4.4,3c1.7,0.7,3.6,1.1,5.6,1.1c1.9,0,3.7-0.4,5.4-1.1c1.7-0.7,3.2-1.7,4.4-3
			c1.2-1.3,2.2-2.8,3-4.4c0.8-1.7,1.1-3.5,1.1-5.4c0-1.9-0.4-3.7-1.1-5.4c-0.8-1.7-1.8-3.2-3-4.5c-1.2-1.3-2.7-2.3-4.4-3
			c-1.7-0.7-3.5-1.1-5.4-1.1c-2,0-3.9,0.4-5.6,1.1c-1.7,0.7-3.2,1.7-4.4,3c-1.2,1.3-2.2,2.7-2.9,4.4
			C103.1,196.7,102.8,198.5,102.8,200.4z"/>
		<path class="st0" d="M203.7,185.7c-4-2.1-7.9-3.1-11.7-3.1c-2,0-3.6,0.4-4.8,1.2c-1.2,0.8-1.9,1.9-1.9,3.2c0,0.7,0.1,1.3,0.3,1.7
			c0.2,0.4,0.6,0.9,1.3,1.3c0.7,0.4,1.7,0.8,3,1.1c1.3,0.3,3.1,0.7,5.2,1.2c6,1.2,10.5,3.3,13.4,6.4c3,3.1,4.4,7,4.4,11.8
			c0,3.6-0.7,6.8-2.2,9.7c-1.4,2.9-3.4,5.3-6,7.2c-2.6,2-5.6,3.5-9.2,4.6c-3.6,1.1-7.5,1.6-11.9,1.6c-8.3,0-16.5-2.4-24.5-7.1
			l7.9-15.3c6.1,4.2,11.8,6.2,17.2,6.2c2,0,3.6-0.4,4.9-1.3c1.3-0.9,1.9-2,1.9-3.4c0-0.8-0.1-1.5-0.3-2c-0.2-0.5-0.6-1-1.3-1.4
			c-0.6-0.4-1.6-0.8-2.8-1.2c-1.2-0.4-2.9-0.7-4.8-1.1c-6.7-1.4-11.4-3.4-14.1-6c-2.7-2.7-4-6.4-4-11.1c0-3.4,0.6-6.5,1.9-9.3
			c1.3-2.8,3.1-5.1,5.5-7c2.4-1.9,5.3-3.4,8.7-4.4c3.4-1,7.2-1.6,11.3-1.6c6.8,0,13.4,1.3,19.8,4L203.7,185.7z"/>
		<path class="st0" d="M217.9,200c0-4.6,0.9-8.8,2.8-12.8c1.8-4,4.4-7.4,7.7-10.3c3.3-2.9,7.2-5.2,11.7-6.9
			c4.5-1.7,9.4-2.5,14.8-2.5c5.3,0,10.2,0.8,14.7,2.5c4.5,1.6,8.4,3.9,11.7,6.8c3.3,2.9,5.9,6.4,7.7,10.4c1.8,4,2.8,8.5,2.8,13.4
			c0,4.9-0.9,9.3-2.8,13.4c-1.9,4-4.5,7.5-7.7,10.4c-3.3,2.9-7.2,5.2-11.8,6.8c-4.6,1.6-9.6,2.4-14.9,2.4c-5.3,0-10.1-0.8-14.6-2.4
			c-4.5-1.6-8.3-3.9-11.6-6.8c-3.2-3-5.8-6.5-7.6-10.6C218.9,209.6,217.9,205.1,217.9,200z M240.8,200.3c0,2.1,0.4,4,1.1,5.7
			c0.8,1.7,1.8,3.2,3,4.5c1.2,1.3,2.7,2.3,4.4,3c1.7,0.7,3.5,1.1,5.4,1.1s3.7-0.4,5.4-1.1c1.7-0.7,3.2-1.7,4.4-3
			c1.2-1.3,2.2-2.8,3-4.5c0.8-1.7,1.1-3.6,1.1-5.6c0-1.9-0.4-3.7-1.1-5.4c-0.8-1.7-1.8-3.2-3-4.5c-1.2-1.3-2.7-2.3-4.4-3
			c-1.7-0.7-3.5-1.1-5.4-1.1s-3.7,0.4-5.4,1.1c-1.7,0.7-3.2,1.7-4.4,3c-1.2,1.3-2.2,2.8-3,4.4C241.2,196.6,240.8,198.4,240.8,200.3z
			"/>
	</g>
	<g>
		<g>
			<g>
				<defs>
					<polygon id="SVGID_1_" points="280,151.6 232,48.1 221.1,71.7 247.2,128 203.6,128 160,128 186.1,71.7 175.1,48.1 127.2,151.6 
						203.6,151.6 					"/>
				</defs>
				<clipPath id="SVGID_2_">
					<use xlink:href="#SVGID_1_"  style="overflow:visible;"/>
				</clipPath>
				<g class="st1">
					<rect x="127.2" y="151.3" class="st2" width="152.8" height="0.3"/>
				</g>
				<g class="st1">
					<rect x="127.2" y="150.7" class="st2" width="152.8" height="0.9"/>
				</g>
				<g class="st1">
					<rect x="127.2" y="150.1" class="st2" width="152.8" height="0.9"/>
				</g>
				<g class="st1">
					<rect x="127.2" y="149.4" class="st2" width="152.8" height="0.9"/>
				</g>
				<g class="st1">
					<rect x="127.2" y="148.8" class="st3" width="152.8" height="0.9"/>
				</g>
				<g class="st1">
					<rect x="127.2" y="148.2" class="st3" width="152.8" height="0.9"/>
				</g>
				<g class="st1">
					<rect x="127.2" y="147.5" class="st3" width="152.8" height="0.9"/>
				</g>
				<g class="st1">
					<rect x="127.2" y="146.9" class="st3" width="152.8" height="0.9"/>
				</g>
				<g class="st1">
					<rect x="127.2" y="146.3" class="st3" width="152.8" height="0.9"/>
				</g>
				<g class="st1">
					<rect x="127.2" y="145.6" class="st4" width="152.8" height="0.9"/>
				</g>
				<g class="st1">
					<rect x="127.2" y="145" class="st4" width="152.8" height="0.9"/>
				</g>
				<g class="st1">
					<rect x="127.2" y="144.4" class="st4" width="152.8" height="0.9"/>
				</g>
				<g class="st1">
					<rect x="127.2" y="143.8" class="st4" width="152.8" height="0.9"/>
				</g>
				<g class="st1">
					<rect x="127.2" y="143.1" class="st4" width="152.8" height="0.9"/>
				</g>
				<g class="st1">
					<rect x="127.2" y="142.5" class="st4" width="152.8" height="0.9"/>
				</g>
				<g class="st1">
					<rect x="127.2" y="141.9" class="st4" width="152.8" height="0.9"/>
				</g>
				<g class="st1">
					<rect x="127.2" y="141.2" class="st4" width="152.8" height="0.9"/>
				</g>
				<g class="st1">
					<rect x="127.2" y="140.6" class="st5" width="152.8" height="0.9"/>
				</g>
				<g class="st1">
					<rect x="127.2" y="140" class="st5" width="152.8" height="0.9"/>
				</g>
				<g class="st1">
					<rect x="127.2" y="139.4" class="st5" width="152.8" height="0.9"/>
				</g>
				<g class="st1">
					<rect x="127.2" y="138.7" class="st5" width="152.8" height="0.9"/>
				</g>
				<g class="st1">
					<rect x="127.2" y="138.1" class="st5" width="152.8" height="0.9"/>
				</g>
				<g class="st1">
					<rect x="127.2" y="137.5" class="st6" width="152.8" height="0.9"/>
				</g>
				<g class="st1">
					<rect x="127.2" y="136.8" class="st6" width="152.8" height="0.9"/>
				</g>
				<g class="st1">
					<rect x="127.2" y="136.2" class="st6" width="152.8" height="0.9"/>
				</g>
				<g class="st1">
					<rect x="127.2" y="135.6" class="st6" width="152.8" height="0.9"/>
				</g>
				<g class="st1">
					<rect x="127.2" y="134.9" class="st6" width="152.8" height="0.9"/>
				</g>
				<g class="st1">
					<rect x="127.2" y="134.3" class="st6" width="152.8" height="0.9"/>
				</g>
				<g class="st1">
					<rect x="127.2" y="133.7" class="st6" width="152.8" height="0.9"/>
				</g>
				<g class="st1">
					<rect x="127.2" y="133.1" class="st7" width="152.8" height="0.9"/>
				</g>
				<g class="st1">
					<rect x="127.2" y="132.4" class="st7" width="152.8" height="0.9"/>
				</g>
				<g class="st1">
					<rect x="127.2" y="131.8" class="st7" width="152.8" height="0.9"/>
				</g>
				<g class="st1">
					<rect x="127.2" y="131.2" class="st7" width="152.8" height="0.9"/>
				</g>
				<g class="st1">
					<rect x="127.2" y="130.5" class="st7" width="152.8" height="0.9"/>
				</g>
				<g class="st1">
					<rect x="127.2" y="129.9" class="st7" width="152.8" height="0.9"/>
				</g>
				<g class="st1">
					<rect x="127.2" y="129.3" class="st7" width="152.8" height="0.9"/>
				</g>
				<g class="st1">
					<rect x="127.2" y="128.7" class="st7" width="152.8" height="0.9"/>
				</g>
				<g class="st1">
					<rect x="127.2" y="128" class="st8" width="152.8" height="0.9"/>
				</g>
				<g class="st1">
					<rect x="127.2" y="127.4" class="st8" width="152.8" height="0.9"/>
				</g>
				<g class="st1">
					<rect x="127.2" y="126.8" class="st8" width="152.8" height="0.9"/>
				</g>
				<g class="st1">
					<rect x="127.2" y="126.1" class="st8" width="152.8" height="0.9"/>
				</g>
				<g class="st1">
					<rect x="127.2" y="125.5" class="st8" width="152.8" height="0.9"/>
				</g>
				<g class="st1">
					<rect x="127.2" y="124.9" class="st9" width="152.8" height="0.9"/>
				</g>
				<g class="st1">
					<rect x="127.2" y="124.2" class="st9" width="152.8" height="0.9"/>
				</g>
				<g class="st1">
					<rect x="127.2" y="123.6" class="st9" width="152.8" height="0.9"/>
				</g>
				<g class="st1">
					<rect x="127.2" y="123" class="st9" width="152.8" height="0.9"/>
				</g>
				<g class="st1">
					<rect x="127.2" y="122.4" class="st9" width="152.8" height="0.9"/>
				</g>
				<g class="st1">
					<rect x="127.2" y="121.7" class="st9" width="152.8" height="0.9"/>
				</g>
				<g class="st1">
					<rect x="127.2" y="121.1" class="st9" width="152.8" height="0.9"/>
				</g>
				<g class="st1">
					<rect x="127.2" y="120.5" class="st10" width="152.8" height="0.9"/>
				</g>
				<g class="st1">
					<rect x="127.2" y="119.8" class="st10" width="152.8" height="0.9"/>
				</g>
				<g class="st1">
					<rect x="127.2" y="119.2" class="st10" width="152.8" height="0.9"/>
				</g>
				<g class="st1">
					<rect x="127.2" y="118.6" class="st10" width="152.8" height="0.9"/>
				</g>
				<g class="st1">
					<rect x="127.2" y="118" class="st10" width="152.8" height="0.9"/>
				</g>
				<g class="st1">
					<rect x="127.2" y="117.3" class="st11" width="152.8" height="0.9"/>
				</g>
				<g class="st1">
					<rect x="127.2" y="116.7" class="st11" width="152.8" height="0.9"/>
				</g>
				<g class="st1">
					<rect x="127.2" y="116.1" class="st11" width="152.8" height="0.9"/>
				</g>
				<g class="st1">
					<rect x="127.2" y="115.4" class="st11" width="152.8" height="0.9"/>
				</g>
				<g class="st1">
					<rect x="127.2" y="114.8" class="st11" width="152.8" height="0.9"/>
				</g>
				<g class="st1">
					<rect x="127.2" y="114.2" class="st11" width="152.8" height="0.9"/>
				</g>
				<g class="st1">
					<rect x="127.2" y="113.5" class="st11" width="152.8" height="0.9"/>
				</g>
				<g class="st1">
					<rect x="127.2" y="112.9" class="st11" width="152.8" height="0.9"/>
				</g>
				<g class="st1">
					<rect x="127.2" y="112.3" class="st12" width="152.8" height="0.9"/>
				</g>
				<g class="st1">
					<rect x="127.2" y="111.7" class="st12" width="152.8" height="0.9"/>
				</g>
				<g class="st1">
					<rect x="127.2" y="111" class="st12" width="152.8" height="0.9"/>
				</g>
				<g class="st1">
					<rect x="127.2" y="110.4" class="st12" width="152.8" height="0.9"/>
				</g>
				<g class="st1">
					<rect x="127.2" y="109.8" class="st12" width="152.8" height="0.9"/>
				</g>
				<g class="st1">
					<rect x="127.2" y="109.1" class="st13" width="152.8" height="0.9"/>
				</g>
				<g class="st1">
					<rect x="127.2" y="108.5" class="st13" width="152.8" height="0.9"/>
				</g>
				<g class="st1">
					<rect x="127.2" y="107.9" class="st13" width="152.8" height="0.9"/>
				</g>
				<g class="st1">
					<rect x="127.2" y="107.2" class="st13" width="152.8" height="0.9"/>
				</g>
				<g class="st1">
					<rect x="127.2" y="106.6" class="st13" width="152.8" height="0.9"/>
				</g>
				<g class="st1">
					<rect x="127.2" y="106" class="st13" width="152.8" height="0.9"/>
				</g>
				<g class="st1">
					<rect x="127.2" y="105.4" class="st13" width="152.8" height="0.9"/>
				</g>
				<g class="st1">
					<rect x="127.2" y="104.7" class="st14" width="152.8" height="0.9"/>
				</g>
				<g class="st1">
					<rect x="127.2" y="104.1" class="st14" width="152.8" height="0.9"/>
				</g>
				<g class="st1">
					<rect x="127.2" y="103.5" class="st14" width="152.8" height="0.9"/>
				</g>
				<g class="st1">
					<rect x="127.2" y="102.8" class="st14" width="152.8" height="0.9"/>
				</g>
				<g class="st1">
					<rect x="127.2" y="102.2" class="st14" width="152.8" height="0.9"/>
				</g>
				<g class="st1">
					<rect x="127.2" y="101.6" class="st15" width="152.8" height="0.9"/>
				</g>
				<g class="st1">
					<rect x="127.2" y="101" class="st15" width="152.8" height="0.9"/>
				</g>
				<g class="st1">
					<rect x="127.2" y="100.3" class="st15" width="152.8" height="0.9"/>
				</g>
				<g class="st1">
					<rect x="127.2" y="99.7" class="st15" width="152.8" height="0.9"/>
				</g>
				<g class="st1">
					<rect x="127.2" y="99.1" class="st15" width="152.8" height="0.9"/>
				</g>
				<g class="st1">
					<rect x="127.2" y="98.4" class="st15" width="152.8" height="0.9"/>
				</g>
				<g class="st1">
					<rect x="127.2" y="97.8" class="st15" width="152.8" height="0.9"/>
				</g>
				<g class="st1">
					<rect x="127.2" y="97.2" class="st15" width="152.8" height="0.9"/>
				</g>
				<g class="st1">
					<rect x="127.2" y="96.5" class="st16" width="152.8" height="0.9"/>
				</g>
				<g class="st1">
					<rect x="127.2" y="95.9" class="st16" width="152.8" height="0.9"/>
				</g>
				<g class="st1">
					<rect x="127.2" y="95.3" class="st16" width="152.8" height="0.9"/>
				</g>
				<g class="st1">
					<rect x="127.2" y="94.7" class="st16" width="152.8" height="0.9"/>
				</g>
				<g class="st1">
					<rect x="127.2" y="94" class="st16" width="152.8" height="0.9"/>
				</g>
				<g class="st1">
					<rect x="127.2" y="93.4" class="st17" width="152.8" height="0.9"/>
				</g>
				<g class="st1">
					<rect x="127.2" y="92.8" class="st17" width="152.8" height="0.9"/>
				</g>
				<g class="st1">
					<rect x="127.2" y="92.1" class="st17" width="152.8" height="0.9"/>
				</g>
				<g class="st1">
					<rect x="127.2" y="91.5" class="st17" width="152.8" height="0.9"/>
				</g>
				<g class="st1">
					<rect x="127.2" y="90.9" class="st17" width="152.8" height="0.9"/>
				</g>
				<g class="st1">
					<rect x="127.2" y="90.3" class="st17" width="152.8" height="0.9"/>
				</g>
				<g class="st1">
					<rect x="127.2" y="89.6" class="st17" width="152.8" height="0.9"/>
				</g>
				<g class="st1">
					<rect x="127.2" y="89" class="st18" width="152.8" height="0.9"/>
				</g>
				<g class="st1">
					<rect x="127.2" y="88.4" class="st18" width="152.8" height="0.9"/>
				</g>
				<g class="st1">
					<rect x="127.2" y="87.7" class="st18" width="152.8" height="0.9"/>
				</g>
				<g class="st1">
					<rect x="127.2" y="87.1" class="st18" width="152.8" height="0.9"/>
				</g>
				<g class="st1">
					<rect x="127.2" y="86.5" class="st18" width="152.8" height="0.9"/>
				</g>
				<g class="st1">
					<rect x="127.2" y="85.8" class="st18" width="152.8" height="0.9"/>
				</g>
				<g class="st1">
					<rect x="127.2" y="85.2" class="st18" width="152.8" height="0.9"/>
				</g>
				<g class="st1">
					<rect x="127.2" y="84.6" class="st18" width="152.8" height="0.9"/>
				</g>
				<g class="st1">
					<rect x="127.2" y="84" class="st19" width="152.8" height="0.9"/>
				</g>
				<g class="st1">
					<rect x="127.2" y="83.3" class="st19" width="152.8" height="0.9"/>
				</g>
				<g class="st1">
					<rect x="127.2" y="82.7" class="st19" width="152.8" height="0.9"/>
				</g>
				<g class="st1">
					<rect x="127.2" y="82.1" class="st19" width="152.8" height="0.9"/>
				</g>
				<g class="st1">
					<rect x="127.2" y="81.4" class="st19" width="152.8" height="0.9"/>
				</g>
				<g class="st1">
					<rect x="127.2" y="80.8" class="st20" width="152.8" height="0.9"/>
				</g>
				<g class="st1">
					<rect x="127.2" y="80.2" class="st20" width="152.8" height="0.9"/>
				</g>
				<g class="st1">
					<rect x="127.2" y="79.6" class="st20" width="152.8" height="0.9"/>
				</g>
				<g class="st1">
					<rect x="127.2" y="78.9" class="st20" width="152.8" height="0.9"/>
				</g>
				<g class="st1">
					<rect x="127.2" y="78.3" class="st20" width="152.8" height="0.9"/>
				</g>
				<g class="st1">
					<rect x="127.2" y="77.7" class="st20" width="152.8" height="0.9"/>
				</g>
				<g class="st1">
					<rect x="127.2" y="77" class="st20" width="152.8" height="0.9"/>
				</g>
				<g class="st1">
					<rect x="127.2" y="76.4" class="st21" width="152.8" height="0.9"/>
				</g>
				<g class="st1">
					<rect x="127.2" y="75.8" class="st21" width="152.8" height="0.9"/>
				</g>
				<g class="st1">
					<rect x="127.2" y="75.1" class="st21" width="152.8" height="0.9"/>
				</g>
				<g class="st1">
					<rect x="127.2" y="74.5" class="st21" width="152.8" height="0.9"/>
				</g>
				<g class="st1">
					<rect x="127.2" y="73.9" class="st21" width="152.8" height="0.9"/>
				</g>
				<g class="st1">
					<rect x="127.2" y="73.3" class="st22" width="152.8" height="0.9"/>
				</g>
				<g class="st1">
					<rect x="127.2" y="72.6" class="st22" width="152.8" height="0.9"/>
				</g>
				<g class="st1">
					<rect x="127.2" y="72" class="st22" width="152.8" height="0.9"/>
				</g>
				<g class="st1">
					<rect x="127.2" y="71.4" class="st22" width="152.8" height="0.9"/>
				</g>
				<g class="st1">
					<rect x="127.2" y="70.7" class="st22" width="152.8" height="0.9"/>
				</g>
				<g class="st1">
					<rect x="127.2" y="70.1" class="st22" width="152.8" height="0.9"/>
				</g>
				<g class="st1">
					<rect x="127.2" y="69.5" class="st22" width="152.8" height="0.9"/>
				</g>
				<g class="st1">
					<rect x="127.2" y="68.9" class="st22" width="152.8" height="0.9"/>
				</g>
				<g class="st1">
					<rect x="127.2" y="68.2" class="st23" width="152.8" height="0.9"/>
				</g>
				<g class="st1">
					<rect x="127.2" y="67.6" class="st23" width="152.8" height="0.9"/>
				</g>
				<g class="st1">
					<rect x="127.2" y="67" class="st23" width="152.8" height="0.9"/>
				</g>
				<g class="st1">
					<rect x="127.2" y="66.3" class="st23" width="152.8" height="0.9"/>
				</g>
				<g class="st1">
					<rect x="127.2" y="65.7" class="st23" width="152.8" height="0.9"/>
				</g>
				<g class="st1">
					<rect x="127.2" y="65.1" class="st24" width="152.8" height="0.9"/>
				</g>
				<g class="st1">
					<rect x="127.2" y="64.4" class="st24" width="152.8" height="0.9"/>
				</g>
				<g class="st1">
					<rect x="127.2" y="63.8" class="st24" width="152.8" height="0.9"/>
				</g>
				<g class="st1">
					<rect x="127.2" y="63.2" class="st24" width="152.8" height="0.9"/>
				</g>
				<g class="st1">
					<rect x="127.2" y="62.6" class="st24" width="152.8" height="0.9"/>
				</g>
				<g class="st1">
					<rect x="127.2" y="61.9" class="st24" width="152.8" height="0.9"/>
				</g>
				<g class="st1">
					<rect x="127.2" y="61.3" class="st24" width="152.8" height="0.9"/>
				</g>
				<g class="st1">
					<rect x="127.2" y="60.7" class="st25" width="152.8" height="0.9"/>
				</g>
				<g class="st1">
					<rect x="127.2" y="60" class="st25" width="152.8" height="0.9"/>
				</g>
				<g class="st1">
					<rect x="127.2" y="59.4" class="st25" width="152.8" height="0.9"/>
				</g>
				<g class="st1">
					<rect x="127.2" y="58.8" class="st25" width="152.8" height="0.9"/>
				</g>
				<g class="st1">
					<rect x="127.2" y="58.2" class="st25" width="152.8" height="0.9"/>
				</g>
				<g class="st1">
					<rect x="127.2" y="57.5" class="st26" width="152.8" height="0.9"/>
				</g>
				<g class="st1">
					<rect x="127.2" y="56.9" class="st26" width="152.8" height="0.9"/>
				</g>
				<g class="st1">
					<rect x="127.2" y="56.3" class="st26" width="152.8" height="0.9"/>
				</g>
				<g class="st1">
					<rect x="127.2" y="55.6" class="st26" width="152.8" height="0.9"/>
				</g>
				<g class="st1">
					<rect x="127.2" y="55" class="st26" width="152.8" height="0.9"/>
				</g>
				<g class="st1">
					<rect x="127.2" y="54.4" class="st26" width="152.8" height="0.9"/>
				</g>
				<g class="st1">
					<rect x="127.2" y="53.7" class="st26" width="152.8" height="0.9"/>
				</g>
				<g class="st1">
					<rect x="127.2" y="53.1" class="st26" width="152.8" height="0.9"/>
				</g>
				<g class="st1">
					<rect x="127.2" y="52.5" class="st27" width="152.8" height="0.9"/>
				</g>
				<g class="st1">
					<rect x="127.2" y="51.9" class="st27" width="152.8" height="0.9"/>
				</g>
				<g class="st1">
					<rect x="127.2" y="51.2" class="st27" width="152.8" height="0.9"/>
				</g>
				<g class="st1">
					<rect x="127.2" y="50.6" class="st27" width="152.8" height="0.9"/>
				</g>
				<g class="st1">
					<rect x="127.2" y="50" class="st27" width="152.8" height="0.9"/>
				</g>
				<g class="st1">
					<rect x="127.2" y="49.3" class="st27" width="152.8" height="0.9"/>
				</g>
				<g class="st1">
					<rect x="127.2" y="48.7" class="st27" width="152.8" height="0.9"/>
				</g>
				<g class="st1">
					<rect x="127.2" y="48.1" class="st28" width="152.8" height="0.9"/>
				</g>
				<g class="st1">
					<rect x="127.2" y="48.1" class="st28" width="152.8" height="0.3"/>
				</g>
			</g>
		</g>
		<polygon class="st15" points="173.6,121.1 191.4,84 209.3,121.1 		"/>
	</g>
</g>
</svg>
